<svg height="512pt" viewBox="0 -80 512.00008 512" width="512pt" xmlns="http://www.w3.org/2000/svg"><path d="m392.4375 256.441406c-21.515625 15.585938-45.425781 30.230469-71.28125 43.351563-.871094.445312-1.742188.878906-2.609375 1.316406-22.367187 11.203125-44.78125 20.558594-66.792969 28.09375-8.03125 2.746094-16.011718 5.253906-23.910156 7.503906-15.191406 4.351563-30.09375 7.792969-44.5625 10.332031-83.722656 14.703126-152.558594-.828124-175.460938-46.554687-34.539062-68.976563 48.5625-180.550781 185.628907-249.183594 16.675781-8.355469 33.378906-15.683593 49.921875-21.992187 29.089844-11.101563 57.679687-19.039063 84.730468-23.835938 17.605469-3.121094 34.5625-4.902344 50.570313-5.359375 60.378906-1.699219 107.367187 15.578125 125.503906 51.808594 27.78125 55.464844-20.5 138.441406-111.738281 204.519531zm0 0" fill="#ffb74d"/><path d="m275.257812 230.335938c1.925782-.765626 3.160157-1.191407 3.566407-1.117188.597656.113281-.777344.570312-3.566407 1.117188zm0 0" fill="#ff624d"/><path d="m427.535156 139.574219c-2.242187 26.082031-23.144531 70.851562-48.707031 97.933593-26.167969 27.722657-77.953125 72.417969-111.921875 81.351563-5.597656 1.472656-10.53125 5.492187-15.152344 10.34375-112.886718 38.625-215.019531 29.007813-243.933594-28.71875-34.539062-68.976563 48.5625-180.550781 185.628907-249.183594 16.675781-8.355469 33.378906-15.683593 49.921875-21.992187 29.089844-11.101563 57.679687-19.039063 84.730468-23.835938.734376 3.90625-1.628906 7.78125-5.484374 8.902344-.070313.019531-.132813.039062-.183594.050781-49.726563 13.070313-102.414063 41.753907-144.550782 78.710938-42.117187 36.921875-70.109374 79.050781-76.792968 115.5625-4.15625 22.714843 1.171875 41.691406 15.378906 54.863281 10.21875 9.472656 24.964844 15.75 42.625 18.164062 18.902344 2.582032 41.195312.71875 64.460938-5.40625 31.617187-8.3125 63.09375-25.527343 88.605468-48.472656 25.144532-22.613281 41.339844-47.898437 45.601563-71.195312 2.484375-13.542969-.625-24.808594-8.988281-32.550782-13.078126-12.125-37.722657-14.933593-65.917969-7.511718-19.816407 5.199218-39.539063 16-55.550781 30.394531-1.4375 1.292969-5.003907 4.757813-5.40625 5.160156-12.488282 12.550781-21.007813 26.375-22.894532 38.820313-7.398437 48.8125 59.570313 42.625 76.253906 39.371094-18.375 7.335937-99.632812 46.136718-119.757812-14.589844-5.648438-17.050782 10.363281-58.8125 29.273438-78.246094 17.273437-17.746094 39.148437-35.921875 58.8125-47.671875 63.734374-38.078125 132.144531-32.046875 151.824218-19.171875 32.46875 21.246094 33.765625 49.910156 32.125 68.917969zm0 0" fill="#ff624d"/><path d="m373.058594 159.449219c-4.882813 26.65625-22.8125 55.050781-50.503906 79.957031-27.328126 24.570312-61.082032 43.015625-95.042969 51.949219-18.09375 4.757812-35.304688 7.097656-51.132813 7.097656-29.203125 0-53.722656-7.96875-70.46875-23.492187-18.054687-16.726563-25.195312-41.246094-20.105468-69.0625 7.410156-40.476563 36.46875-84.679688 81.828124-124.453126 22.894532-20.074218 48.8125-37.816406 75.738282-52.136718 29.089844-11.101563 57.679687-19.039063 84.730468-23.835938 17.605469-3.121094 34.5625-4.902344 50.570313-5.359375-13.617187 5.171875-51.648437 13.164063-56.054687 14.261719-.070313.019531-.132813.039062-.183594.050781-49.726563 13.070313-102.414063 41.753907-144.550782 78.710938-42.117187 36.921875-70.109374 79.050781-76.792968 115.5625-4.15625 22.714843 1.171875 41.691406 15.378906 54.863281 10.21875 9.472656 24.964844 15.75 42.625 18.164062 18.902344 2.582032 41.195312.71875 64.460938-5.40625 31.617187-8.3125 63.09375-25.527343 88.605468-48.472656 25.144532-22.613281 41.339844-47.898437 45.601563-71.195312 2.484375-13.542969-.625-24.808594-8.988281-32.550782-13.078126-12.125-37.722657-14.933593-65.917969-7.511718-19.816407 5.199218-39.539063 16-55.550781 30.394531-1.4375 1.292969-2.839844 2.621094-4.195313 3.949219-.40625.402344-.808594.808594-1.210937 1.210937-12.40625 12.570313-20.625 26.449219-22.894532 38.820313-.777344 4.230468-4.820312 7.015625-9.046875 6.25-4.21875-.765625-7.015625-4.820313-6.25-9.046875 3.234375-17.660157 15.027344-36.394531 33.203125-52.738281 17.816406-16.023438 39.828125-28.054688 61.996094-33.878907 33.855469-8.902343 63.175781-4.839843 80.429688 11.140625 12.28125 11.378906 17.152343 27.992188 13.722656 46.757813zm0 0" fill="#ff3b63"/><path d="m437.910156 127.6875c-.28125 38.851562-7.328125 88.097656-45.441406 128.722656-.011719.011719-.023438.019532-.03125.03125-21.515625 15.585938-45.425781 30.230469-71.28125 43.351563-.871094.445312-1.742188.878906-2.609375 1.316406-22.367187 11.203125-44.78125 20.558594-66.792969 28.09375-8.03125 2.746094-16.011718 5.253906-23.910156 7.503906-.777344-3.730469 1.296875-7.554687 4.984375-8.882812 50.597656-18.125 98.257813-49.203125 134.207031-87.519531 35.421875-37.761719 55.082032-77.796876 55.332032-112.730469.144531-19.371094-7.628907-35.183594-22.480469-45.714844-26.582031-18.859375-71.921875-19.566406-121.261719-1.875-31.96875 11.453125-62.085938 31.089844-84.792969 55.289063-22.199219 23.660156-34.5 48.605468-34.65625 70.253906-.089843 11.605468 4.355469 20.675781 13.203125 26.953125 16.273438 11.546875 44.324219 11.867187 75.054688.851562 40.230468-14.417969 74.386718-50.015625 74.582031-77.734375.03125-4.273437 3.515625-7.710937 7.773437-7.710937h.0625c4.289063.03125 7.742188 3.53125 7.710938 7.824219-.25 34.769531-37.535156 75.289062-84.886719 92.253906-35.503906 12.726562-68.875 11.667968-89.289062-2.796875-13.050781-9.265625-19.878907-23.007813-19.753907-39.753907.1875-25.578124 13.980469-54.265624 38.863282-80.773437 24.363281-25.960937 56.636718-47.019531 90.886718-59.300781 54.125-19.386719 104.773438-17.957032 135.5 3.835937 19.171876 13.605469 29.214844 33.835938 29.027344 58.511719zm0 0" fill="#ffb74d"/><path d="m437.910156 127.6875c-.28125 38.851562-21.429687 82.625-59.535156 123.25-16.882812 18.003906-36.230469 34.460938-57.21875 48.855469-.871094.445312-1.742188.878906-2.609375 1.316406-22.367187 11.203125-44.78125 20.558594-66.792969 28.09375-8.03125 2.746094-16.011718 5.253906-23.910156 7.503906-15.191406 4.351563-30.09375 7.792969-44.5625 10.332031 17.671875-7.792968 46.78125-18.21875 49.546875-19.214843 50.597656-18.125 98.257813-49.203125 134.207031-87.519531 35.421875-37.761719 55.082032-77.796876 55.332032-112.730469.144531-19.371094-7.628907-35.183594-22.480469-45.714844-26.582031-18.859375-71.921875-19.566406-121.261719-1.875-31.96875 11.453125-62.085938 31.089844-84.792969 55.289063-22.199219 23.660156-34.5 48.605468-34.65625 70.253906-.089843 11.605468 4.355469 20.675781 13.203125 26.953125 16.273438 11.546875 44.324219 11.867187 75.054688.851562 40.230468-14.417969 74.386718-50.015625 74.582031-77.734375.03125-4.273437 3.515625-7.710937 7.773437-7.710937h.0625c4.289063.03125 7.742188 3.53125 7.710938 7.824219-.25 34.769531-37.535156 75.289062-84.886719 92.253906-35.503906 12.726562-68.875 11.667968-89.289062-2.796875-13.050781-9.265625-19.878907-23.007813-19.753907-39.753907.1875-25.578124 13.980469-54.265624 38.863282-80.773437 24.363281-25.960937 56.636718-47.019531 90.886718-59.300781 54.125-19.386719 104.773438-17.957032 135.5 3.835937 19.171876 13.605469 29.214844 33.835938 29.027344 58.511719zm0 0" fill="#ffdb2d"/><path d="m308.777344 171.800781c-14.785156 22.066407-48.253906 41.386719-74.75 43.160157-26.5 1.769531-36-14.679688-21.214844-36.742188 14.785156-22.066406 48.25-41.386719 74.75-43.160156 26.5-1.769532 35.996094 14.679687 21.214844 36.742187zm0 0" fill="#544768"/><path d="m297.5 171.019531c-12.042969 16.453125-38.242188 31.582031-58.515625 33.785157-20.273437 2.203124-26.941406-9.351563-14.898437-25.804688 12.046874-16.457031 38.246093-31.582031 58.515624-33.785156 20.273438-2.203125 26.945313 9.351562 14.898438 25.804687zm0 0" fill="#302d3f"/></svg>