<?xml version="1.0" encoding="iso-8859-1"?>
<!-- Generator: Adobe Illustrator 19.0.0, SVG Export Plug-In . SVG Version: 6.00 Build 0)  -->
<svg version="1.1" id="Layer_1" xmlns="http://www.w3.org/2000/svg" xmlns:xlink="http://www.w3.org/1999/xlink" x="0px" y="0px"
	 viewBox="0 0 512 512" style="enable-background:new 0 0 512 512;" xml:space="preserve" fill="gold">
<g>
	<g>
		<g>
			<path d="M375.723,213.333c4.71,0,8.533-3.823,8.533-8.533c0-4.71-3.823-8.533-8.533-8.533h-0.085
				c-4.71,0-8.491,3.823-8.491,8.533C367.147,209.51,371.012,213.333,375.723,213.333z"/>
			<path d="M324.267,204.8c0,28.237,22.963,51.2,51.2,51.2c28.237,0,51.2-22.963,51.2-51.2c0-28.237-22.963-51.2-51.2-51.2
				C347.23,153.6,324.267,176.563,324.267,204.8z M375.467,170.667c18.825,0,34.133,15.309,34.133,34.133
				s-15.309,34.133-34.133,34.133c-18.825,0-34.133-15.309-34.133-34.133S356.642,170.667,375.467,170.667z"/>
			<path d="M170.641,88.132c0.205,0,0.401-0.009,0.597-0.017c26.47-1.852,54.989-2.782,84.762-2.782
				c29.628,0,58.027,0.93,84.395,2.756c4.634,0.299,8.772-3.217,9.105-7.919c0.324-4.702-3.226-8.781-7.927-9.105
				c-26.761-1.86-55.552-2.799-85.572-2.799c-30.174,0-59.093,0.947-85.939,2.825c-4.702,0.324-8.252,4.403-7.927,9.097
				C162.449,84.693,166.204,88.132,170.641,88.132z"/>
			<path d="M230.4,273.067c-4.719,0-8.533,3.823-8.533,8.533s3.814,8.533,8.533,8.533h51.2c4.719,0,8.533-3.823,8.533-8.533
				s-3.814-8.533-8.533-8.533H230.4z"/>
			<path d="M332.8,372.625c-4.719,0-8.533,3.814-8.533,8.533v113.775h-128v-17.067h102.4c4.719,0,8.533-3.823,8.533-8.533
				s-3.814-8.533-8.533-8.533h-102.4v-17.067h102.4c4.719,0,8.533-3.823,8.533-8.533s-3.814-8.533-8.533-8.533h-102.4V409.6h102.4
				c4.719,0,8.533-3.823,8.533-8.533s-3.814-8.533-8.533-8.533h-102.4V380.8c0-4.71-3.814-8.533-8.533-8.533
				s-8.533,3.823-8.533,8.533v114.133c0,9.412,7.654,17.067,17.067,17.067h128c9.412,0,17.067-7.654,17.067-17.067V381.158
				C341.333,376.439,337.519,372.625,332.8,372.625z"/>
			<path d="M85.333,204.8c0,28.237,22.963,51.2,51.2,51.2s51.2-22.963,51.2-51.2c0-28.237-22.963-51.2-51.2-51.2
				S85.333,176.563,85.333,204.8z M170.667,204.8c0,18.825-15.309,34.133-34.133,34.133S102.4,223.625,102.4,204.8
				s15.309-34.133,34.133-34.133S170.667,185.975,170.667,204.8z"/>
			<path d="M493.713,123.605c-9.455-15.761-27.895-30.575-47.607-37.931c-0.922-0.273-21.666-6.178-62.114-11.008l4.224-23.893
				C400.324,48.751,409.6,38.272,409.6,25.6C409.6,11.486,398.114,0,384,0s-25.6,11.486-25.6,25.6
				c0,9.523,5.291,17.749,13.022,22.161l-5.777,32.708c-0.043,0.247,0.043,0.478,0.017,0.725c0,0.017-0.009,0.026-0.009,0.034
				c-0.008,0.043,0.017,0.085,0.017,0.137c-0.077,1.033-0.008,2.031,0.273,2.978c0.119,0.469,0.375,0.87,0.572,1.314
				c0.239,0.469,0.418,0.964,0.742,1.382c0.546,0.768,1.237,1.391,1.997,1.937c0.068,0.051,0.12,0.111,0.188,0.154
				c1.118,0.751,2.347,1.331,3.78,1.485c44.194,4.745,67.422,11.247,67.516,11.247c15.454,5.794,30.865,18.065,38.571,30.891
				c0.162,0.23,15.625,24.346,15.625,80.58c0,56.235-15.462,80.35-15.659,80.64c-7.305,11.093-22.383,25.446-37.871,30.618
				c-0.597,0.171-60.45,16.742-185.404,16.742c-124.766,0-184.636-16.529-184.73-16.529c-16.017-5.999-30.711-17.69-38.536-30.822
				c-0.162-0.247-15.667-24.849-15.667-80.648c0-55.799,15.505-80.401,15.599-80.555c7.782-11.511,23.031-26.044,38.084-30.746
				c0.23-0.068,23.185-6.938,67.422-11.725c2.244,0.137,4.318-0.768,5.956-2.287c2.133-1.988,3.106-4.932,2.569-7.808l-6.059-32.486
				c7.706-4.42,12.962-12.629,12.962-22.127C153.6,11.486,142.114,0,128,0s-25.6,11.486-25.6,25.6
				c0,12.689,9.31,23.177,21.444,25.182l4.378,23.484c-40.704,4.89-61.534,11.162-62.498,11.452
				C46.592,91.699,28.237,108.86,18.5,123.264C17.741,124.399,0,151.723,0,213.333s17.741,88.934,18.27,89.702
				c9.515,15.983,27.529,30.455,47.659,37.965C68.412,341.717,128.273,358.4,256,358.4s187.588-16.683,190.43-17.502
				c19.823-6.605,37.939-23.612,47.019-37.427c0.759-1.109,18.551-27.955,18.551-90.138S494.208,124.305,493.713,123.605z
				 M375.467,25.6c0-4.702,3.823-8.533,8.533-8.533s8.533,3.831,8.533,8.533c0,4.702-3.823,8.533-8.533,8.533
				S375.467,30.302,375.467,25.6z M128,34.133c-4.71,0-8.533-3.831-8.533-8.533c0-4.702,3.823-8.533,8.533-8.533
				s8.533,3.831,8.533,8.533C136.533,30.302,132.71,34.133,128,34.133z"/>
			<path d="M128.213,204.8c0,4.71,3.866,8.533,8.576,8.533c4.71,0,8.533-3.823,8.533-8.533c0-4.71-3.823-8.533-8.533-8.533h-0.085
				C131.994,196.267,128.213,200.09,128.213,204.8z"/>
		</g>
	</g>
</g>
<!-- <g>
</g>
<g>
</g>
<g>
</g>
<g>
</g>
<g>
</g>
<g>
</g>
<g>
</g>
<g>
</g>
<g>
</g>
<g>
</g>
<g>
</g>
<g>
</g>
<g>
</g>
<g>
</g>
<g>
</g> -->
</svg>
